<?xml version="1.0" encoding="UTF-8"?>
<svg width="229px" height="182px" viewBox="0 0 229 182" version="1.1" xmlns="http://www.w3.org/2000/svg" xmlns:xlink="http://www.w3.org/1999/xlink">
    <!-- Generator: Sketch 44.1 (41455) - http://www.bohemiancoding.com/sketch -->
    <title>nn-1</title>
    <desc>Created with Sketch.</desc>
    <defs></defs>
    <g id="Page-1" stroke="none" stroke-width="1" fill="none" fill-rule="evenodd">
        <g id="nn-1" transform="translate(0.000000, 1.000000)">
            <g id="nn" fill-rule="nonzero">
                <path d="M10.6666667,70 L79.6666667,10" id="Shape" stroke="#505050" stroke-width="0.5" fill="#000000"></path>
                <path d="M10.6666667,70 L79.6666667,50" id="Shape" stroke="#505050" stroke-width="0.5" fill="#000000"></path>
                <path d="M10.6666667,70 L79.6666667,90" id="Shape" stroke="#505050" stroke-width="0.5" fill="#000000"></path>
                <path d="M10.6666667,70 L79.6666667,130" id="Shape" stroke="#505050" stroke-width="0.5" fill="#000000"></path>
                <path d="M10.6666667,70 L79.6666667,170" id="Shape" stroke="#505050" stroke-width="0.5" fill="#000000"></path>
                <path d="M10.6666667,110 L79.6666667,10" id="Shape" stroke="#505050" stroke-width="0.5" fill="#000000"></path>
                <path d="M10.6666667,110 L79.6666667,50" id="Shape" stroke="#505050" stroke-width="0.5" fill="#000000"></path>
                <path d="M10.6666667,110 L79.6666667,90" id="Shape" stroke="#505050" stroke-width="0.5" fill="#000000"></path>
                <path d="M10.6666667,110 L79.6666667,130" id="Shape" stroke="#505050" stroke-width="0.5" fill="#000000"></path>
                <path d="M10.6666667,110 L79.6666667,170" id="Shape" stroke="#505050" stroke-width="0.5" fill="#000000"></path>
                <path d="M79.6666667,10 L148.666667,10" id="Shape" stroke="#505050" stroke-width="0.5" fill="#000000"></path>
                <path d="M79.6666667,10 L148.666667,50" id="Shape" stroke="#505050" stroke-width="0.5" fill="#000000"></path>
                <path d="M79.6666667,10 L148.666667,90" id="Shape" stroke="#505050" stroke-width="0.5" fill="#000000"></path>
                <path d="M79.6666667,10 L148.666667,130" id="Shape" stroke="#505050" stroke-width="0.5" fill="#000000"></path>
                <path d="M79.6666667,10 L148.666667,170" id="Shape" stroke="#505050" stroke-width="0.5" fill="#000000"></path>
                <path d="M79.6666667,50 L148.666667,10" id="Shape" stroke="#505050" stroke-width="0.5" fill="#000000"></path>
                <path d="M79.6666667,50 L148.666667,50" id="Shape" stroke="#505050" stroke-width="0.5" fill="#000000"></path>
                <path d="M79.6666667,50 L148.666667,90" id="Shape" stroke="#505050" stroke-width="0.5" fill="#000000"></path>
                <path d="M79.6666667,50 L148.666667,130" id="Shape" stroke="#505050" stroke-width="0.5" fill="#000000"></path>
                <path d="M79.6666667,50 L148.666667,170" id="Shape" stroke="#505050" stroke-width="0.5" fill="#000000"></path>
                <path d="M79.6666667,90 L148.666667,10" id="Shape" stroke="#505050" stroke-width="0.5" fill="#000000"></path>
                <path d="M79.6666667,90 L148.666667,50" id="Shape" stroke="#505050" stroke-width="0.5" fill="#000000"></path>
                <path d="M79.6666667,90 L148.666667,90" id="Shape" stroke="#505050" stroke-width="0.5" fill="#000000"></path>
                <path d="M79.6666667,90 L148.666667,130" id="Shape" stroke="#505050" stroke-width="0.5" fill="#000000"></path>
                <path d="M79.6666667,90 L148.666667,170" id="Shape" stroke="#505050" stroke-width="0.5" fill="#000000"></path>
                <path d="M79.6666667,130 L148.666667,10" id="Shape" stroke="#505050" stroke-width="0.5" fill="#000000"></path>
                <path d="M79.6666667,130 L148.666667,50" id="Shape" stroke="#505050" stroke-width="0.5" fill="#000000"></path>
                <path d="M79.6666667,130 L148.666667,90" id="Shape" stroke="#505050" stroke-width="0.5" fill="#000000"></path>
                <path d="M79.6666667,130 L148.666667,130" id="Shape" stroke="#505050" stroke-width="0.5" fill="#000000"></path>
                <path d="M79.6666667,130 L148.666667,170" id="Shape" stroke="#505050" stroke-width="0.5" fill="#000000"></path>
                <path d="M79.6666667,170 L148.666667,10" id="Shape" stroke="#505050" stroke-width="0.5" fill="#000000"></path>
                <path d="M79.6666667,170 L148.666667,50" id="Shape" stroke="#505050" stroke-width="0.5" fill="#000000"></path>
                <path d="M79.6666667,170 L148.666667,90" id="Shape" stroke="#505050" stroke-width="0.5" fill="#000000"></path>
                <path d="M79.6666667,170 L148.666667,130" id="Shape" stroke="#505050" stroke-width="0.5" fill="#000000"></path>
                <path d="M79.6666667,170 L148.666667,170" id="Shape" stroke="#505050" stroke-width="0.5" fill="#000000"></path>
                <path d="M148.666667,10 L217.666667,90" id="Shape" stroke="#505050" stroke-width="0.5" fill="#000000"></path>
                <path d="M148.666667,50 L217.666667,90" id="Shape" stroke="#505050" stroke-width="0.5" fill="#000000"></path>
                <path d="M148.666667,90 L217.666667,90" id="Shape" stroke="#505050" stroke-width="0.5" fill="#000000"></path>
                <path d="M148.666667,130 L217.666667,90" id="Shape" stroke="#505050" stroke-width="0.5" fill="#000000"></path>
                <path d="M148.666667,170 L217.666667,90" id="Shape" stroke="#505050" stroke-width="0.5" fill="#000000"></path>
                <circle id="0_0" stroke="#333333" fill="#FFFFFF" cx="10.6666667" cy="70" r="10"></circle>
                <circle id="0_1" stroke="#333333" fill="#FFFFFF" cx="10.6666667" cy="110" r="10"></circle>
                <circle id="0_2" stroke="#333333" fill="#FFFFFF" cx="79.6666667" cy="10" r="10"></circle>
                <circle id="0_3" stroke="#333333" fill="#FFFFFF" cx="79.6666667" cy="50" r="10"></circle>
                <circle id="0_4" stroke="#333333" fill="#FFFFFF" cx="79.6666667" cy="90" r="10"></circle>
                <circle id="0_5" stroke="#333333" fill="#FFFFFF" cx="79.6666667" cy="130" r="10"></circle>
                <circle id="0_6" stroke="#333333" fill="#FFFFFF" cx="79.6666667" cy="170" r="10"></circle>
                <circle id="0_7" stroke="#333333" fill="#FFFFFF" cx="148.666667" cy="10" r="10"></circle>
                <circle id="0_8" stroke="#333333" fill="#FFFFFF" cx="148.666667" cy="50" r="10"></circle>
                <circle id="0_9" stroke="#333333" fill="#FFFFFF" cx="148.666667" cy="90" r="10"></circle>
                <circle id="0_10" stroke="#333333" fill="#FFFFFF" cx="148.666667" cy="130" r="10"></circle>
                <circle id="0_11" stroke="#333333" fill="#FFFFFF" cx="148.666667" cy="170" r="10"></circle>
                <circle id="0_12" stroke="#333333" fill="#FFFFFF" cx="217.666667" cy="90" r="10"></circle>
            </g>
            <text id="X1" font-family="ArialMT, Arial" font-size="9" font-weight="normal" fill="#313237">
                <tspan x="6" y="72">X</tspan>
                <tspan x="12.0029297" y="72">1</tspan>
            </text>
            <text id="y" font-family="ArialMT, Arial" font-size="9" font-weight="normal" fill="#313237">
                <tspan x="216" y="92">y</tspan>
            </text>
            <text id="X2" font-family="ArialMT, Arial" font-size="9" font-weight="normal" fill="#313237">
                <tspan x="6" y="112">X</tspan>
                <tspan x="12.0029297" y="112">2</tspan>
            </text>
        </g>
    </g>
</svg>