<svg xmlns="http://www.w3.org/2000/svg" width="1082" height="619" style="cursor: move;"><g transform="translate(135.24551364543402,-20.71243734447495) scale(1.0125548073504944)"><line class="link" x1="481" y1="239.5" x2="531" y2="199.5" style="stroke-width: 0.5; stroke-opacity: 1; stroke: rgb(80, 80, 80);"></line><line class="link" x1="481" y1="239.5" x2="531" y2="239.5" style="stroke-width: 0.5; stroke-opacity: 1; stroke: rgb(80, 80, 80);"></line><line class="link" x1="481" y1="239.5" x2="531" y2="279.5" style="stroke-width: 0.5; stroke-opacity: 1; stroke: rgb(80, 80, 80);"></line><line class="link" x1="481" y1="239.5" x2="531" y2="319.5" style="stroke-width: 0.5; stroke-opacity: 1; stroke: rgb(80, 80, 80);"></line><line class="link" x1="481" y1="239.5" x2="531" y2="359.5" style="stroke-width: 0.5; stroke-opacity: 1; stroke: rgb(80, 80, 80);"></line><line class="link" x1="481" y1="239.5" x2="531" y2="399.5" style="stroke-width: 0.5; stroke-opacity: 1; stroke: rgb(80, 80, 80);"></line><line class="link" x1="481" y1="279.5" x2="531" y2="199.5" style="stroke-width: 0.5; stroke-opacity: 1; stroke: rgb(80, 80, 80);"></line><line class="link" x1="481" y1="279.5" x2="531" y2="239.5" style="stroke-width: 0.5; stroke-opacity: 1; stroke: rgb(80, 80, 80);"></line><line class="link" x1="481" y1="279.5" x2="531" y2="279.5" style="stroke-width: 0.5; stroke-opacity: 1; stroke: rgb(80, 80, 80);"></line><line class="link" x1="481" y1="279.5" x2="531" y2="319.5" style="stroke-width: 0.5; stroke-opacity: 1; stroke: rgb(80, 80, 80);"></line><line class="link" x1="481" y1="279.5" x2="531" y2="359.5" style="stroke-width: 0.5; stroke-opacity: 1; stroke: rgb(80, 80, 80);"></line><line class="link" x1="481" y1="279.5" x2="531" y2="399.5" style="stroke-width: 0.5; stroke-opacity: 1; stroke: rgb(80, 80, 80);"></line><line class="link" x1="481" y1="319.5" x2="531" y2="199.5" style="stroke-width: 0.5; stroke-opacity: 1; stroke: rgb(80, 80, 80);"></line><line class="link" x1="481" y1="319.5" x2="531" y2="239.5" style="stroke-width: 0.5; stroke-opacity: 1; stroke: rgb(80, 80, 80);"></line><line class="link" x1="481" y1="319.5" x2="531" y2="279.5" style="stroke-width: 0.5; stroke-opacity: 1; stroke: rgb(80, 80, 80);"></line><line class="link" x1="481" y1="319.5" x2="531" y2="319.5" style="stroke-width: 0.5; stroke-opacity: 1; stroke: rgb(80, 80, 80);"></line><line class="link" x1="481" y1="319.5" x2="531" y2="359.5" style="stroke-width: 0.5; stroke-opacity: 1; stroke: rgb(80, 80, 80);"></line><line class="link" x1="481" y1="319.5" x2="531" y2="399.5" style="stroke-width: 0.5; stroke-opacity: 1; stroke: rgb(80, 80, 80);"></line><line class="link" x1="481" y1="359.5" x2="531" y2="199.5" style="stroke-width: 0.5; stroke-opacity: 1; stroke: rgb(80, 80, 80);"></line><line class="link" x1="481" y1="359.5" x2="531" y2="239.5" style="stroke-width: 0.5; stroke-opacity: 1; stroke: rgb(80, 80, 80);"></line><line class="link" x1="481" y1="359.5" x2="531" y2="279.5" style="stroke-width: 0.5; stroke-opacity: 1; stroke: rgb(80, 80, 80);"></line><line class="link" x1="481" y1="359.5" x2="531" y2="319.5" style="stroke-width: 0.5; stroke-opacity: 1; stroke: rgb(80, 80, 80);"></line><line class="link" x1="481" y1="359.5" x2="531" y2="359.5" style="stroke-width: 0.5; stroke-opacity: 1; stroke: rgb(80, 80, 80);"></line><line class="link" x1="481" y1="359.5" x2="531" y2="399.5" style="stroke-width: 0.5; stroke-opacity: 1; stroke: rgb(80, 80, 80);"></line><line class="link" x1="531" y1="199.5" x2="581" y2="199.5" style="stroke-width: 0.5; stroke-opacity: 1; stroke: rgb(80, 80, 80);"></line><line class="link" x1="531" y1="199.5" x2="581" y2="239.5" style="stroke-width: 0.5; stroke-opacity: 1; stroke: rgb(80, 80, 80);"></line><line class="link" x1="531" y1="199.5" x2="581" y2="279.5" style="stroke-width: 0.5; stroke-opacity: 1; stroke: rgb(80, 80, 80);"></line><line class="link" x1="531" y1="199.5" x2="581" y2="319.5" style="stroke-width: 0.5; stroke-opacity: 1; stroke: rgb(80, 80, 80);"></line><line class="link" x1="531" y1="199.5" x2="581" y2="359.5" style="stroke-width: 0.5; stroke-opacity: 1; stroke: rgb(80, 80, 80);"></line><line class="link" x1="531" y1="199.5" x2="581" y2="399.5" style="stroke-width: 0.5; stroke-opacity: 1; stroke: rgb(80, 80, 80);"></line><line class="link" x1="531" y1="239.5" x2="581" y2="199.5" style="stroke-width: 0.5; stroke-opacity: 1; stroke: rgb(80, 80, 80);"></line><line class="link" x1="531" y1="239.5" x2="581" y2="239.5" style="stroke-width: 0.5; stroke-opacity: 1; stroke: rgb(80, 80, 80);"></line><line class="link" x1="531" y1="239.5" x2="581" y2="279.5" style="stroke-width: 0.5; stroke-opacity: 1; stroke: rgb(80, 80, 80);"></line><line class="link" x1="531" y1="239.5" x2="581" y2="319.5" style="stroke-width: 0.5; stroke-opacity: 1; stroke: rgb(80, 80, 80);"></line><line class="link" x1="531" y1="239.5" x2="581" y2="359.5" style="stroke-width: 0.5; stroke-opacity: 1; stroke: rgb(80, 80, 80);"></line><line class="link" x1="531" y1="239.5" x2="581" y2="399.5" style="stroke-width: 0.5; stroke-opacity: 1; stroke: rgb(80, 80, 80);"></line><line class="link" x1="531" y1="279.5" x2="581" y2="199.5" style="stroke-width: 0.5; stroke-opacity: 1; stroke: rgb(80, 80, 80);"></line><line class="link" x1="531" y1="279.5" x2="581" y2="239.5" style="stroke-width: 0.5; stroke-opacity: 1; stroke: rgb(80, 80, 80);"></line><line class="link" x1="531" y1="279.5" x2="581" y2="279.5" style="stroke-width: 0.5; stroke-opacity: 1; stroke: rgb(80, 80, 80);"></line><line class="link" x1="531" y1="279.5" x2="581" y2="319.5" style="stroke-width: 0.5; stroke-opacity: 1; stroke: rgb(80, 80, 80);"></line><line class="link" x1="531" y1="279.5" x2="581" y2="359.5" style="stroke-width: 0.5; stroke-opacity: 1; stroke: rgb(80, 80, 80);"></line><line class="link" x1="531" y1="279.5" x2="581" y2="399.5" style="stroke-width: 0.5; stroke-opacity: 1; stroke: rgb(80, 80, 80);"></line><line class="link" x1="531" y1="319.5" x2="581" y2="199.5" style="stroke-width: 0.5; stroke-opacity: 1; stroke: rgb(80, 80, 80);"></line><line class="link" x1="531" y1="319.5" x2="581" y2="239.5" style="stroke-width: 0.5; stroke-opacity: 1; stroke: rgb(80, 80, 80);"></line><line class="link" x1="531" y1="319.5" x2="581" y2="279.5" style="stroke-width: 0.5; stroke-opacity: 1; stroke: rgb(80, 80, 80);"></line><line class="link" x1="531" y1="319.5" x2="581" y2="319.5" style="stroke-width: 0.5; stroke-opacity: 1; stroke: rgb(80, 80, 80);"></line><line class="link" x1="531" y1="319.5" x2="581" y2="359.5" style="stroke-width: 0.5; stroke-opacity: 1; stroke: rgb(80, 80, 80);"></line><line class="link" x1="531" y1="319.5" x2="581" y2="399.5" style="stroke-width: 0.5; stroke-opacity: 1; stroke: rgb(80, 80, 80);"></line><line class="link" x1="531" y1="359.5" x2="581" y2="199.5" style="stroke-width: 0.5; stroke-opacity: 1; stroke: rgb(80, 80, 80);"></line><line class="link" x1="531" y1="359.5" x2="581" y2="239.5" style="stroke-width: 0.5; stroke-opacity: 1; stroke: rgb(80, 80, 80);"></line><line class="link" x1="531" y1="359.5" x2="581" y2="279.5" style="stroke-width: 0.5; stroke-opacity: 1; stroke: rgb(80, 80, 80);"></line><line class="link" x1="531" y1="359.5" x2="581" y2="319.5" style="stroke-width: 0.5; stroke-opacity: 1; stroke: rgb(80, 80, 80);"></line><line class="link" x1="531" y1="359.5" x2="581" y2="359.5" style="stroke-width: 0.5; stroke-opacity: 1; stroke: rgb(80, 80, 80);"></line><line class="link" x1="531" y1="359.5" x2="581" y2="399.5" style="stroke-width: 0.5; stroke-opacity: 1; stroke: rgb(80, 80, 80);"></line><line class="link" x1="531" y1="399.5" x2="581" y2="199.5" style="stroke-width: 0.5; stroke-opacity: 1; stroke: rgb(80, 80, 80);"></line><line class="link" x1="531" y1="399.5" x2="581" y2="239.5" style="stroke-width: 0.5; stroke-opacity: 1; stroke: rgb(80, 80, 80);"></line><line class="link" x1="531" y1="399.5" x2="581" y2="279.5" style="stroke-width: 0.5; stroke-opacity: 1; stroke: rgb(80, 80, 80);"></line><line class="link" x1="531" y1="399.5" x2="581" y2="319.5" style="stroke-width: 0.5; stroke-opacity: 1; stroke: rgb(80, 80, 80);"></line><line class="link" x1="531" y1="399.5" x2="581" y2="359.5" style="stroke-width: 0.5; stroke-opacity: 1; stroke: rgb(80, 80, 80);"></line><line class="link" x1="531" y1="399.5" x2="581" y2="399.5" style="stroke-width: 0.5; stroke-opacity: 1; stroke: rgb(80, 80, 80);"></line><line class="link" x1="581" y1="199.5" x2="631" y2="202" style="stroke-width: 0.5; stroke-opacity: 1; stroke: rgb(80, 80, 80);"></line><line class="link" x1="581" y1="199.5" x2="631" y2="241" style="stroke-width: 0.5; stroke-opacity: 1; stroke: rgb(80, 80, 80);"></line><line class="link" x1="581" y1="199.5" x2="631" y2="280" style="stroke-width: 0.5; stroke-opacity: 1; stroke: rgb(80, 80, 80);"></line><line class="link" x1="581" y1="199.5" x2="631" y2="319" style="stroke-width: 0.5; stroke-opacity: 1; stroke: rgb(80, 80, 80);"></line><line class="link" x1="581" y1="199.5" x2="631" y2="358" style="stroke-width: 0.5; stroke-opacity: 1; stroke: rgb(80, 80, 80);"></line><line class="link" x1="581" y1="199.5" x2="631" y2="397" style="stroke-width: 0.5; stroke-opacity: 1; stroke: rgb(80, 80, 80);"></line><line class="link" x1="581" y1="239.5" x2="631" y2="202" style="stroke-width: 0.5; stroke-opacity: 1; stroke: rgb(80, 80, 80);"></line><line class="link" x1="581" y1="239.5" x2="631" y2="241" style="stroke-width: 0.5; stroke-opacity: 1; stroke: rgb(80, 80, 80);"></line><line class="link" x1="581" y1="239.5" x2="631" y2="280" style="stroke-width: 0.5; stroke-opacity: 1; stroke: rgb(80, 80, 80);"></line><line class="link" x1="581" y1="239.5" x2="631" y2="319" style="stroke-width: 0.5; stroke-opacity: 1; stroke: rgb(80, 80, 80);"></line><line class="link" x1="581" y1="239.5" x2="631" y2="358" style="stroke-width: 0.5; stroke-opacity: 1; stroke: rgb(80, 80, 80);"></line><line class="link" x1="581" y1="239.5" x2="631" y2="397" style="stroke-width: 0.5; stroke-opacity: 1; stroke: rgb(80, 80, 80);"></line><line class="link" x1="581" y1="279.5" x2="631" y2="202" style="stroke-width: 0.5; stroke-opacity: 1; stroke: rgb(80, 80, 80);"></line><line class="link" x1="581" y1="279.5" x2="631" y2="241" style="stroke-width: 0.5; stroke-opacity: 1; stroke: rgb(80, 80, 80);"></line><line class="link" x1="581" y1="279.5" x2="631" y2="280" style="stroke-width: 0.5; stroke-opacity: 1; stroke: rgb(80, 80, 80);"></line><line class="link" x1="581" y1="279.5" x2="631" y2="319" style="stroke-width: 0.5; stroke-opacity: 1; stroke: rgb(80, 80, 80);"></line><line class="link" x1="581" y1="279.5" x2="631" y2="358" style="stroke-width: 0.5; stroke-opacity: 1; stroke: rgb(80, 80, 80);"></line><line class="link" x1="581" y1="279.5" x2="631" y2="397" style="stroke-width: 0.5; stroke-opacity: 1; stroke: rgb(80, 80, 80);"></line><line class="link" x1="581" y1="319.5" x2="631" y2="202" style="stroke-width: 0.5; stroke-opacity: 1; stroke: rgb(80, 80, 80);"></line><line class="link" x1="581" y1="319.5" x2="631" y2="241" style="stroke-width: 0.5; stroke-opacity: 1; stroke: rgb(80, 80, 80);"></line><line class="link" x1="581" y1="319.5" x2="631" y2="280" style="stroke-width: 0.5; stroke-opacity: 1; stroke: rgb(80, 80, 80);"></line><line class="link" x1="581" y1="319.5" x2="631" y2="319" style="stroke-width: 0.5; stroke-opacity: 1; stroke: rgb(80, 80, 80);"></line><line class="link" x1="581" y1="319.5" x2="631" y2="358" style="stroke-width: 0.5; stroke-opacity: 1; stroke: rgb(80, 80, 80);"></line><line class="link" x1="581" y1="319.5" x2="631" y2="397" style="stroke-width: 0.5; stroke-opacity: 1; stroke: rgb(80, 80, 80);"></line><line class="link" x1="581" y1="359.5" x2="631" y2="202" style="stroke-width: 0.5; stroke-opacity: 1; stroke: rgb(80, 80, 80);"></line><line class="link" x1="581" y1="359.5" x2="631" y2="241" style="stroke-width: 0.5; stroke-opacity: 1; stroke: rgb(80, 80, 80);"></line><line class="link" x1="581" y1="359.5" x2="631" y2="280" style="stroke-width: 0.5; stroke-opacity: 1; stroke: rgb(80, 80, 80);"></line><line class="link" x1="581" y1="359.5" x2="631" y2="319" style="stroke-width: 0.5; stroke-opacity: 1; stroke: rgb(80, 80, 80);"></line><line class="link" x1="581" y1="359.5" x2="631" y2="358" style="stroke-width: 0.5; stroke-opacity: 1; stroke: rgb(80, 80, 80);"></line><line class="link" x1="581" y1="359.5" x2="631" y2="397" style="stroke-width: 0.5; stroke-opacity: 1; stroke: rgb(80, 80, 80);"></line><line class="link" x1="581" y1="399.5" x2="631" y2="202" style="stroke-width: 0.5; stroke-opacity: 1; stroke: rgb(80, 80, 80);"></line><line class="link" x1="581" y1="399.5" x2="631" y2="241" style="stroke-width: 0.5; stroke-opacity: 1; stroke: rgb(80, 80, 80);"></line><line class="link" x1="581" y1="399.5" x2="631" y2="280" style="stroke-width: 0.5; stroke-opacity: 1; stroke: rgb(80, 80, 80);"></line><line class="link" x1="581" y1="399.5" x2="631" y2="319" style="stroke-width: 0.5; stroke-opacity: 1; stroke: rgb(80, 80, 80);"></line><line class="link" x1="581" y1="399.5" x2="631" y2="358" style="stroke-width: 0.5; stroke-opacity: 1; stroke: rgb(80, 80, 80);"></line><line class="link" x1="581" y1="399.5" x2="631" y2="397" style="stroke-width: 0.5; stroke-opacity: 1; stroke: rgb(80, 80, 80);"></line><line class="link" x1="631" y1="202" x2="681" y2="199.5" style="stroke-width: 0.5; stroke-opacity: 1; stroke: rgb(80, 80, 80);"></line><line class="link" x1="631" y1="202" x2="681" y2="239.5" style="stroke-width: 0.5; stroke-opacity: 1; stroke: rgb(80, 80, 80);"></line><line class="link" x1="631" y1="202" x2="681" y2="279.5" style="stroke-width: 0.5; stroke-opacity: 1; stroke: rgb(80, 80, 80);"></line><line class="link" x1="631" y1="202" x2="681" y2="319.5" style="stroke-width: 0.5; stroke-opacity: 1; stroke: rgb(80, 80, 80);"></line><line class="link" x1="631" y1="202" x2="681" y2="359.5" style="stroke-width: 0.5; stroke-opacity: 1; stroke: rgb(80, 80, 80);"></line><line class="link" x1="631" y1="202" x2="681" y2="399.5" style="stroke-width: 0.5; stroke-opacity: 1; stroke: rgb(80, 80, 80);"></line><line class="link" x1="631" y1="241" x2="681" y2="199.5" style="stroke-width: 0.5; stroke-opacity: 1; stroke: rgb(80, 80, 80);"></line><line class="link" x1="631" y1="241" x2="681" y2="239.5" style="stroke-width: 0.5; stroke-opacity: 1; stroke: rgb(80, 80, 80);"></line><line class="link" x1="631" y1="241" x2="681" y2="279.5" style="stroke-width: 0.5; stroke-opacity: 1; stroke: rgb(80, 80, 80);"></line><line class="link" x1="631" y1="241" x2="681" y2="319.5" style="stroke-width: 0.5; stroke-opacity: 1; stroke: rgb(80, 80, 80);"></line><line class="link" x1="631" y1="241" x2="681" y2="359.5" style="stroke-width: 0.5; stroke-opacity: 1; stroke: rgb(80, 80, 80);"></line><line class="link" x1="631" y1="241" x2="681" y2="399.5" style="stroke-width: 0.5; stroke-opacity: 1; stroke: rgb(80, 80, 80);"></line><line class="link" x1="631" y1="280" x2="681" y2="199.5" style="stroke-width: 0.5; stroke-opacity: 1; stroke: rgb(80, 80, 80);"></line><line class="link" x1="631" y1="280" x2="681" y2="239.5" style="stroke-width: 0.5; stroke-opacity: 1; stroke: rgb(80, 80, 80);"></line><line class="link" x1="631" y1="280" x2="681" y2="279.5" style="stroke-width: 0.5; stroke-opacity: 1; stroke: rgb(80, 80, 80);"></line><line class="link" x1="631" y1="280" x2="681" y2="319.5" style="stroke-width: 0.5; stroke-opacity: 1; stroke: rgb(80, 80, 80);"></line><line class="link" x1="631" y1="280" x2="681" y2="359.5" style="stroke-width: 0.5; stroke-opacity: 1; stroke: rgb(80, 80, 80);"></line><line class="link" x1="631" y1="280" x2="681" y2="399.5" style="stroke-width: 0.5; stroke-opacity: 1; stroke: rgb(80, 80, 80);"></line><line class="link" x1="631" y1="319" x2="681" y2="199.5" style="stroke-width: 0.5; stroke-opacity: 1; stroke: rgb(80, 80, 80);"></line><line class="link" x1="631" y1="319" x2="681" y2="239.5" style="stroke-width: 0.5; stroke-opacity: 1; stroke: rgb(80, 80, 80);"></line><line class="link" x1="631" y1="319" x2="681" y2="279.5" style="stroke-width: 0.5; stroke-opacity: 1; stroke: rgb(80, 80, 80);"></line><line class="link" x1="631" y1="319" x2="681" y2="319.5" style="stroke-width: 0.5; stroke-opacity: 1; stroke: rgb(80, 80, 80);"></line><line class="link" x1="631" y1="319" x2="681" y2="359.5" style="stroke-width: 0.5; stroke-opacity: 1; stroke: rgb(80, 80, 80);"></line><line class="link" x1="631" y1="319" x2="681" y2="399.5" style="stroke-width: 0.5; stroke-opacity: 1; stroke: rgb(80, 80, 80);"></line><line class="link" x1="631" y1="358" x2="681" y2="199.5" style="stroke-width: 0.5; stroke-opacity: 1; stroke: rgb(80, 80, 80);"></line><line class="link" x1="631" y1="358" x2="681" y2="239.5" style="stroke-width: 0.5; stroke-opacity: 1; stroke: rgb(80, 80, 80);"></line><line class="link" x1="631" y1="358" x2="681" y2="279.5" style="stroke-width: 0.5; stroke-opacity: 1; stroke: rgb(80, 80, 80);"></line><line class="link" x1="631" y1="358" x2="681" y2="319.5" style="stroke-width: 0.5; stroke-opacity: 1; stroke: rgb(80, 80, 80);"></line><line class="link" x1="631" y1="358" x2="681" y2="359.5" style="stroke-width: 0.5; stroke-opacity: 1; stroke: rgb(80, 80, 80);"></line><line class="link" x1="631" y1="358" x2="681" y2="399.5" style="stroke-width: 0.5; stroke-opacity: 1; stroke: rgb(80, 80, 80);"></line><line class="link" x1="631" y1="397" x2="681" y2="199.5" style="stroke-width: 0.5; stroke-opacity: 1; stroke: rgb(80, 80, 80);"></line><line class="link" x1="631" y1="397" x2="681" y2="239.5" style="stroke-width: 0.5; stroke-opacity: 1; stroke: rgb(80, 80, 80);"></line><line class="link" x1="631" y1="397" x2="681" y2="279.5" style="stroke-width: 0.5; stroke-opacity: 1; stroke: rgb(80, 80, 80);"></line><line class="link" x1="631" y1="397" x2="681" y2="319.5" style="stroke-width: 0.5; stroke-opacity: 1; stroke: rgb(80, 80, 80);"></line><line class="link" x1="631" y1="397" x2="681" y2="359.5" style="stroke-width: 0.5; stroke-opacity: 1; stroke: rgb(80, 80, 80);"></line><line class="link" x1="631" y1="397" x2="681" y2="399.5" style="stroke-width: 0.5; stroke-opacity: 1; stroke: rgb(80, 80, 80);"></line><line class="link" x1="681" y1="199.5" x2="731" y2="299.5" style="stroke-width: 0.5; stroke-opacity: 1; stroke: rgb(80, 80, 80);"></line><line class="link" x1="681" y1="239.5" x2="731" y2="299.5" style="stroke-width: 0.5; stroke-opacity: 1; stroke: rgb(80, 80, 80);"></line><line class="link" x1="681" y1="279.5" x2="731" y2="299.5" style="stroke-width: 0.5; stroke-opacity: 1; stroke: rgb(80, 80, 80);"></line><line class="link" x1="681" y1="319.5" x2="731" y2="299.5" style="stroke-width: 0.5; stroke-opacity: 1; stroke: rgb(80, 80, 80);"></line><line class="link" x1="681" y1="359.5" x2="731" y2="299.5" style="stroke-width: 0.5; stroke-opacity: 1; stroke: rgb(80, 80, 80);"></line><line class="link" x1="681" y1="399.5" x2="731" y2="299.5" style="stroke-width: 0.5; stroke-opacity: 1; stroke: rgb(80, 80, 80);"></line><circle r="10" class="node" id="0_0" cx="481" cy="239.5" style="fill: rgb(255, 255, 255); stroke: rgb(51, 51, 51);"></circle><circle r="10" class="node" id="0_1" cx="481" cy="279.5" style="fill: rgb(255, 255, 255); stroke: rgb(51, 51, 51);"></circle><circle r="10" class="node" id="0_2" cx="481" cy="319.5" style="fill: rgb(255, 255, 255); stroke: rgb(51, 51, 51);"></circle><circle r="10" class="node" id="0_3" cx="481" cy="359.5" style="fill: rgb(255, 255, 255); stroke: rgb(51, 51, 51);"></circle><circle r="10" class="node" id="0_4" cx="531" cy="199.5" style="fill: rgb(255, 255, 255); stroke: rgb(51, 51, 51);"></circle><circle r="10" class="node" id="0_5" cx="531" cy="239.5" style="fill: rgb(255, 255, 255); stroke: rgb(51, 51, 51);"></circle><circle r="10" class="node" id="0_6" cx="531" cy="279.5" style="fill: rgb(255, 255, 255); stroke: rgb(51, 51, 51);"></circle><circle r="10" class="node" id="0_7" cx="531" cy="319.5" style="fill: rgb(255, 255, 255); stroke: rgb(51, 51, 51);"></circle><circle r="10" class="node" id="0_8" cx="531" cy="359.5" style="fill: rgb(255, 255, 255); stroke: rgb(51, 51, 51);"></circle><circle r="10" class="node" id="0_9" cx="531" cy="399.5" style="fill: rgb(255, 255, 255); stroke: rgb(51, 51, 51);"></circle><circle r="10" class="node" id="0_10" cx="581" cy="199.5" style="fill: rgb(255, 255, 255); stroke: rgb(51, 51, 51);"></circle><circle r="10" class="node" id="0_11" cx="581" cy="239.5" style="fill: rgb(255, 255, 255); stroke: rgb(51, 51, 51);"></circle><circle r="10" class="node" id="0_12" cx="581" cy="279.5" style="fill: rgb(255, 255, 255); stroke: rgb(51, 51, 51);"></circle><circle r="10" class="node" id="0_13" cx="581" cy="319.5" style="fill: rgb(255, 255, 255); stroke: rgb(51, 51, 51);"></circle><circle r="10" class="node" id="0_14" cx="581" cy="359.5" style="fill: rgb(255, 255, 255); stroke: rgb(51, 51, 51);"></circle><circle r="10" class="node" id="0_15" cx="581" cy="399.5" style="fill: rgb(255, 255, 255); stroke: rgb(51, 51, 51);"></circle><circle r="10" class="node" id="1_0" cx="631" cy="202" style="fill: rgb(255, 255, 255); stroke: rgb(51, 51, 51);"></circle><text class="text" dy=".35em" x="446" y="439.5" style="font-size: 12px;"></text><text class="text" dy=".35em" x="496" y="439.5" style="font-size: 12px;"></text><text class="text" dy=".35em" x="546" y="439.5" style="font-size: 12px;"></text><text class="text" dy=".35em" x="596" y="439.5" style="font-size: 12px;"></text><circle r="10" class="node" id="3_1" cx="631" cy="241" style="fill: rgb(255, 255, 255); stroke: rgb(51, 51, 51);"></circle><circle r="10" class="node" id="3_2" cx="631" cy="280" style="fill: rgb(255, 255, 255); stroke: rgb(51, 51, 51);"></circle><circle r="10" class="node" id="3_3" cx="631" cy="319" style="fill: rgb(255, 255, 255); stroke: rgb(51, 51, 51);"></circle><circle r="10" class="node" id="3_4" cx="631" cy="358" style="fill: rgb(255, 255, 255); stroke: rgb(51, 51, 51);"></circle><circle r="10" class="node" id="3_5" cx="631" cy="397" style="fill: rgb(255, 255, 255); stroke: rgb(51, 51, 51);"></circle><circle r="10" class="node" id="4_0" cx="681" cy="199.5" style="fill: rgb(255, 255, 255); stroke: rgb(51, 51, 51);"></circle><circle r="10" class="node" id="4_1" cx="681" cy="239.5" style="fill: rgb(255, 255, 255); stroke: rgb(51, 51, 51);"></circle><circle r="10" class="node" id="4_2" cx="681" cy="279.5" style="fill: rgb(255, 255, 255); stroke: rgb(51, 51, 51);"></circle><circle r="10" class="node" id="4_3" cx="681" cy="319.5" style="fill: rgb(255, 255, 255); stroke: rgb(51, 51, 51);"></circle><circle r="10" class="node" id="4_4" cx="681" cy="359.5" style="fill: rgb(255, 255, 255); stroke: rgb(51, 51, 51);"></circle><circle r="10" class="node" id="4_5" cx="681" cy="399.5" style="fill: rgb(255, 255, 255); stroke: rgb(51, 51, 51);"></circle><circle r="10" class="node" id="5_0" cx="731" cy="299.5" style="fill: rgb(255, 255, 255); stroke: rgb(51, 51, 51);"></circle></g></svg>